<svg xmlns="http://www.w3.org/2000/svg" fill="#2d2d2d" width="1280" height="1280" viewBox="0 0 1280 1280"><path fill-rule="evenodd" d="M961.2 369.1c-91.9 0-174.1 46-223.1 115.9l39.4 27.5c40.3-57.4 107.1-95.7 182.6-95.7 122.4 0 219.7 100.3 219.7 223.2s-97.3 223.2-219.7 223.2c-75.5 0-141.9-38.7-182.2-96.1l-40.1 28c49 70 128.8 115.8 220.7 115.8 150.3 0 271.6-121.6 271.6-271.2-.1-149.7-119.3-270.6-268.9-270.6m85.2 352.2V498.7L823 579.1v55.5l74-26.9v167l149.4-53.4"/><path d="M614.6 721.9c-9.3 0-21.9-.5-28.6-1.5V557.7c7.2-.4 17.7-.7 28.6-.7 49.4 0 73.3 27.1 73.3 82.9.1 55.9-23.2 82-73.3 82m3.2-207.2-58.1.8-22.2.4h-1.2v247.3l9.8.2 63.8 1c85.3 0 130.4-43.7 130.4-126.5.1-80.6-42.3-123.2-122.5-123.2m-257.3 42.4c3.8-.1 16.6-.5 35.2-.5 27.3 0 40.6 11.6 40.6 35.5 0 23.6-14.2 35.5-42.1 35.5h-33.8l.1-70.5zm89.7 121.3c-3.8-6.5-8.2-13-11.8-18 31.5-11.1 50.3-36.3 50.3-70.2 0-49.4-31-75.5-89.6-75.5l-66.9.9-20.1.3H311v247.8h49.5v-94.5h27.4l55.8 94.5h59.6l-53.1-85.3M129.6 671l24.2-75.9c3.2-10.1 6.5-21.9 9-32.3 2.3 9 5.5 19.9 9.4 32.6l24.2 75.7h-66.8zm67.2-154.3-.3-.8h-62L50 763.7h50.1l16.2-50.9h93.4l16.3 50.9h55l-84.2-247"/></svg>